<mxfile host="app.diagrams.net" modified="2020-12-04T22:21:18.729Z" agent="5.0 (Macintosh; Intel Mac OS X 10_15_6) AppleWebKit/605.1.15 (KHTML, like Gecko) Version/14.0.1 Safari/605.1.15" etag="f7AqoTWk7B47H24FvEFM" version="13.10.8" type="github">
  <diagram id="ItNjQNX7oRzqFyE7Ipll" name="Page-1">
    <mxGraphModel dx="601" dy="645" grid="1" gridSize="10" guides="1" tooltips="1" connect="1" arrows="1" fold="1" page="1" pageScale="1" pageWidth="827" pageHeight="1169" math="0" shadow="0">
      <root>
        <mxCell id="0" />
        <mxCell id="1" parent="0" />
        <mxCell id="zJe6BoQmNDJU479UufUS-1" value="" style="shape=folder;fontStyle=1;spacingTop=10;tabWidth=125;tabHeight=40;tabPosition=left;html=1;fontSize=10;" vertex="1" parent="1">
          <mxGeometry x="175" y="40" width="605" height="640" as="geometry" />
        </mxCell>
        <mxCell id="zJe6BoQmNDJU479UufUS-2" value="&lt;div&gt;&lt;font style=&quot;font-size: 11px&quot;&gt;&lt;b&gt;Gestione Finanze&lt;/b&gt;&lt;/font&gt;&lt;/div&gt;" style="text;html=1;strokeColor=none;fillColor=none;align=left;verticalAlign=middle;whiteSpace=wrap;rounded=0;" vertex="1" parent="1">
          <mxGeometry x="180" y="50" width="107.5" height="30" as="geometry" />
        </mxCell>
        <mxCell id="o0FbUrnGtFw57tziQlIS-9" value="" style="endArrow=none;html=1;entryX=0;entryY=0.5;entryDx=0;entryDy=0;exitX=1;exitY=0.3333333333333333;exitDx=0;exitDy=0;exitPerimeter=0;" parent="1" target="zJe6BoQmNDJU479UufUS-11" edge="1">
          <mxGeometry width="50" height="50" relative="1" as="geometry">
            <mxPoint x="80" y="365" as="sourcePoint" />
            <mxPoint x="350" y="360" as="targetPoint" />
          </mxGeometry>
        </mxCell>
        <mxCell id="o0FbUrnGtFw57tziQlIS-15" value="" style="endArrow=none;html=1;exitX=0;exitY=0.5;exitDx=0;exitDy=0;entryX=1;entryY=0.3333333333333333;entryDx=0;entryDy=0;entryPerimeter=0;" parent="1" source="zJe6BoQmNDJU479UufUS-7" edge="1">
          <mxGeometry width="50" height="50" relative="1" as="geometry">
            <mxPoint x="350" y="160" as="sourcePoint" />
            <mxPoint x="80" y="365" as="targetPoint" />
          </mxGeometry>
        </mxCell>
        <mxCell id="o0FbUrnGtFw57tziQlIS-16" value="" style="endArrow=none;html=1;exitX=1;exitY=0.3333333333333333;exitDx=0;exitDy=0;entryX=0;entryY=0.5;entryDx=0;entryDy=0;exitPerimeter=0;" parent="1" target="zJe6BoQmNDJU479UufUS-13" edge="1">
          <mxGeometry width="50" height="50" relative="1" as="geometry">
            <mxPoint x="80" y="365" as="sourcePoint" />
            <mxPoint x="414" y="540" as="targetPoint" />
          </mxGeometry>
        </mxCell>
        <mxCell id="o0FbUrnGtFw57tziQlIS-23" value="&lt;font style=&quot;font-size: 15px&quot;&gt;Direttore &lt;br&gt;Generale&lt;/font&gt;" style="shape=umlActor;verticalLabelPosition=bottom;verticalAlign=top;html=1;outlineConnect=0;" parent="1" vertex="1">
          <mxGeometry x="40" y="330" width="30" height="60" as="geometry" />
        </mxCell>
        <mxCell id="C06ovZrhE3uBorGxhGHh-12" value="c" style="endArrow=classic;html=1;dashed=1;entryX=1;entryY=0.5;entryDx=0;entryDy=0;exitX=0;exitY=0.5;exitDx=0;exitDy=0;" parent="1" source="zJe6BoQmNDJU479UufUS-9" target="zJe6BoQmNDJU479UufUS-11" edge="1">
          <mxGeometry width="50" height="50" relative="1" as="geometry">
            <mxPoint x="549" y="260" as="sourcePoint" />
            <mxPoint x="430" y="360" as="targetPoint" />
          </mxGeometry>
        </mxCell>
        <mxCell id="C06ovZrhE3uBorGxhGHh-13" value="&amp;nbsp;&amp;lt;&amp;lt;Extends&amp;gt;&amp;gt;&amp;nbsp;" style="edgeLabel;html=1;align=center;verticalAlign=middle;resizable=0;points=[];" parent="C06ovZrhE3uBorGxhGHh-12" vertex="1" connectable="0">
          <mxGeometry x="-0.0125" y="1" relative="1" as="geometry">
            <mxPoint y="-3" as="offset" />
          </mxGeometry>
        </mxCell>
        <mxCell id="zJe6BoQmNDJU479UufUS-7" value="Inserimento nuova entrata&lt;br&gt;&lt;br&gt;&lt;br&gt;&lt;b&gt;Extension Point&lt;br&gt;&lt;/b&gt;Formato dati non valido" style="ellipse;whiteSpace=wrap;html=1;fontSize=10;" vertex="1" parent="1">
          <mxGeometry x="324" y="130" width="180" height="95.5" as="geometry" />
        </mxCell>
        <mxCell id="zJe6BoQmNDJU479UufUS-8" value="" style="endArrow=none;html=1;fontSize=10;exitX=0;exitY=0.5;exitDx=0;exitDy=0;entryX=1;entryY=0.5;entryDx=0;entryDy=0;" edge="1" parent="1" source="zJe6BoQmNDJU479UufUS-7" target="zJe6BoQmNDJU479UufUS-7">
          <mxGeometry width="50" height="50" relative="1" as="geometry">
            <mxPoint x="569" y="307.75" as="sourcePoint" />
            <mxPoint x="505" y="186.75" as="targetPoint" />
          </mxGeometry>
        </mxCell>
        <mxCell id="zJe6BoQmNDJU479UufUS-9" value="Inserimento finanza" style="ellipse;whiteSpace=wrap;html=1;fontSize=10;" vertex="1" parent="1">
          <mxGeometry x="581" y="225.5" width="180" height="95.5" as="geometry" />
        </mxCell>
        <mxCell id="zJe6BoQmNDJU479UufUS-10" value="&amp;lt;&amp;lt; Extends&amp;gt;&amp;gt;" style="endArrow=classic;html=1;fontSize=10;entryX=1;entryY=0.5;entryDx=0;entryDy=0;exitX=0;exitY=0.5;exitDx=0;exitDy=0;dashed=1;" edge="1" parent="1" source="zJe6BoQmNDJU479UufUS-9" target="zJe6BoQmNDJU479UufUS-7">
          <mxGeometry width="50" height="50" relative="1" as="geometry">
            <mxPoint x="557" y="287.75" as="sourcePoint" />
            <mxPoint x="607" y="237.75" as="targetPoint" />
          </mxGeometry>
        </mxCell>
        <mxCell id="zJe6BoQmNDJU479UufUS-11" value="Inserimento nuova uscita&lt;br&gt;&lt;br&gt;&lt;br&gt;&lt;b&gt;Extension Point&lt;br&gt;&lt;/b&gt;Formato dati non valido" style="ellipse;whiteSpace=wrap;html=1;fontSize=10;" vertex="1" parent="1">
          <mxGeometry x="324" y="330" width="180" height="95.5" as="geometry" />
        </mxCell>
        <mxCell id="zJe6BoQmNDJU479UufUS-12" value="" style="endArrow=none;html=1;fontSize=10;exitX=0;exitY=0.5;exitDx=0;exitDy=0;entryX=1;entryY=0.5;entryDx=0;entryDy=0;" edge="1" parent="1" source="zJe6BoQmNDJU479UufUS-11" target="zJe6BoQmNDJU479UufUS-11">
          <mxGeometry width="50" height="50" relative="1" as="geometry">
            <mxPoint x="569" y="507.75" as="sourcePoint" />
            <mxPoint x="505" y="386.75" as="targetPoint" />
          </mxGeometry>
        </mxCell>
        <mxCell id="zJe6BoQmNDJU479UufUS-13" value="Visualizzazione lista finanze" style="ellipse;whiteSpace=wrap;html=1;fontSize=10;" vertex="1" parent="1">
          <mxGeometry x="324" y="530" width="180" height="95.5" as="geometry" />
        </mxCell>
      </root>
    </mxGraphModel>
  </diagram>
</mxfile>
